<?xml version="1.0" encoding="utf-8"?>
<!-- Generator: Adobe Illustrator 25.4.1, SVG Export Plug-In . SVG Version: 6.00 Build 0)  -->
<svg version="1.1" id="Capa_1" xmlns="http://www.w3.org/2000/svg" xmlns:xlink="http://www.w3.org/1999/xlink" x="0px" y="0px"
	 viewBox="0 0 600 207.4" style="enable-background:new 0 0 600 207.4;" xml:space="preserve">
<style type="text/css">
	.st0{fill:#8576B5;}
</style>
<path class="st0" d="M92.4,137.4c-16.6,0-29.2-6.6-36.5-19.1l-0.6-1l9.3-5.9l0.7,1.4c5.5,10.1,14.3,16,24.3,16
	c16.2,0,26.6-9.7,26.6-24.7c0-17.9-13.9-23.2-28.6-28.7C72.1,69.5,56,63.4,56,42.1C56,20.7,72.9,5.1,96.2,5.1
	c20.7,0,29.1,9.8,33.5,17.2l0.6,1l-8.2,5.1l-0.8-1.2c-5.7-9.3-11.3-14.3-24.7-14.3c-13.8,0-23.1,12.2-23.1,23.5
	c0,17.6,13.9,22.8,28.7,28.3c16,6,32.5,12.1,32.5,34.1C134.7,120.4,116.1,137.4,92.4,137.4"/>
<polygon class="st0" points="222.2,135.7 146.7,135.7 146.7,6.8 219.6,6.8 219.6,15.7 164.7,15.7 164.7,65.6 216.2,65.6 216.2,74.5 
	164.7,74.5 164.7,126.8 222.2,126.8 "/>
<polygon class="st0" points="297.1,135.7 280.1,135.7 280.1,71.3 231.5,6.8 250.9,6.8 292.4,60.5 332.3,6.8 342.2,6.8 297.1,69.9 
	"/>
<polygon class="st0" points="408.9,135.6 390.9,135.6 390.9,15.6 354.2,15.6 354.2,6.7 445.6,6.7 445.6,15.6 408.9,15.6 "/>
<path class="st0" d="M507.2,135.6c-31,0-49.5-16.3-49.5-43.5V6.8h17.1v83.9c0,22.9,12.4,36.5,33.2,36.5c19.1,0,30.5-11.9,30.5-31.9
	V38.4h11v58.8C549.5,114.9,538.4,135.6,507.2,135.6"/>
<polygon class="st0" points="528.1,39.6 516.4,39.6 542.6,7 564.2,7 "/>
<path class="st0" d="M103.7,194.5c-0.9,1.2-2.1,2.3-3.3,3.2c-1.3,0.9-2.7,1.7-4.3,2.2c-1.6,0.5-3.3,0.8-5.3,0.8
	c-2.3,0-4.4-0.4-6.4-1.3c-2-0.9-3.7-2-5.2-3.5c-1.5-1.5-2.7-3.2-3.5-5.2c-0.9-2-1.3-4.1-1.3-6.4c0-2.3,0.4-4.5,1.3-6.5
	c0.9-2,2.1-3.7,3.5-5.2c1.5-1.5,3.2-2.7,5.2-3.5c2-0.9,4.1-1.3,6.4-1.3c1.9,0,3.7,0.3,5.3,0.8c1.6,0.5,3,1.3,4.3,2.2
	c1.3,0.9,2.4,2,3.3,3.2c0.9,1.2,1.7,2.5,2.4,3.8l-4.1,1.6c-0.4-1-1-2-1.7-2.9c-0.7-0.9-1.5-1.7-2.4-2.4c-0.9-0.7-2-1.3-3.1-1.7
	c-1.2-0.4-2.5-0.6-3.8-0.6c-1.7,0-3.2,0.3-4.7,1c-1.5,0.7-2.7,1.5-3.8,2.7c-1.1,1.1-1.9,2.5-2.6,4c-0.6,1.5-1,3.1-1,4.8
	c0,1.7,0.3,3.2,1,4.7c0.6,1.5,1.5,2.8,2.6,3.9c1.1,1.1,2.3,2,3.8,2.7c1.5,0.7,3,1,4.7,1c1.4,0,2.7-0.2,3.8-0.6
	c1.2-0.4,2.2-1,3.1-1.7c0.9-0.7,1.7-1.5,2.4-2.4c0.7-0.9,1.3-1.9,1.7-2.9l4.1,1.6C105.4,192.1,104.6,193.3,103.7,194.5"/>
<path class="st0" d="M121.8,168.5V190c0,2,0.6,3.7,1.8,4.9c1.2,1.2,2.8,1.8,4.7,1.8c1.9,0,3.5-0.6,4.7-1.8c1.2-1.2,1.8-2.8,1.8-4.9
	v-21.6h4.4V190c0,1.6-0.3,3.1-0.8,4.4c-0.5,1.3-1.3,2.5-2.3,3.4c-1,1-2.1,1.7-3.5,2.2c-1.3,0.5-2.8,0.8-4.4,0.8
	c-1.6,0-3-0.3-4.4-0.8c-1.3-0.5-2.5-1.3-3.5-2.2c-1-1-1.7-2.1-2.3-3.4c-0.5-1.3-0.8-2.8-0.8-4.4v-21.5H121.8z"/>
<rect x="153.2" y="168.5" class="st0" width="4.4" height="31.7"/>
<path class="st0" d="M181.4,168.5c2.3,0,4.3,0.4,6.3,1.2c1.9,0.8,3.6,1.9,5,3.3c1.4,1.4,2.5,3.1,3.4,5c0.8,1.9,1.2,4.1,1.2,6.3
	c0,2.3-0.4,4.4-1.2,6.3c-0.8,1.9-1.9,3.6-3.4,5c-1.4,1.4-3.1,2.5-5,3.3c-1.9,0.8-4,1.2-6.3,1.2h-9.7v-31.7H181.4z M185.9,195.3
	c1.4-0.6,2.6-1.4,3.6-2.5c1-1.1,1.8-2.3,2.4-3.8c0.6-1.5,0.9-3,0.9-4.8c0-1.7-0.3-3.3-0.9-4.8c-0.6-1.5-1.4-2.7-2.4-3.8
	c-1-1-2.2-1.9-3.6-2.5c-1.4-0.6-2.9-0.9-4.6-0.9H176v23.8h5.3C183,196.2,184.5,195.9,185.9,195.3"/>
<path class="st0" d="M219.4,168.5l11.2,31.7H226l-2-6.1h-12.4l-2,6.1h-4.6l11.3-31.7H219.4z M217.7,175.5l-4.9,14.6h9.8L217.7,175.5
	z"/>
<polygon class="st0" points="253.4,172.4 253.4,168.5 274.1,168.5 274.1,172.4 265.9,172.4 265.9,200.1 261.5,200.1 261.5,172.4 "/>
<path class="st0" d="M290.1,168.5V190c0,2,0.6,3.7,1.8,4.9c1.2,1.2,2.8,1.8,4.7,1.8c1.9,0,3.5-0.6,4.7-1.8c1.2-1.2,1.8-2.8,1.8-4.9
	v-21.6h4.4V190c0,1.6-0.3,3.1-0.8,4.4c-0.5,1.3-1.3,2.5-2.3,3.4c-1,1-2.1,1.7-3.5,2.2c-1.3,0.5-2.8,0.8-4.4,0.8
	c-1.6,0-3-0.3-4.4-0.8c-1.3-0.5-2.5-1.3-3.5-2.2c-1-1-1.7-2.1-2.3-3.4c-0.5-1.3-0.8-2.8-0.8-4.4v-21.5H290.1z"/>
<path class="st0" d="M346.5,168.5c1.4,0,2.7,0.2,3.9,0.6c1.2,0.4,2.1,1,2.9,1.8c0.8,0.8,1.4,1.7,1.9,2.8c0.4,1.1,0.7,2.2,0.7,3.5
	c0,1.6-0.3,3-1,4.2c-0.7,1.2-1.7,2.2-2.9,3c1.2,0.7,2.2,1.7,2.9,3c0.7,1.2,1,2.6,1,4.2c0,1.2-0.2,2.4-0.7,3.5
	c-0.4,1.1-1.1,2-1.9,2.8c-0.8,0.8-1.8,1.4-2.9,1.8c-1.2,0.4-2.4,0.6-3.9,0.6h-11v-31.7H346.5z M350.1,181c0.9-0.9,1.4-2.1,1.4-3.6
	c0-1.5-0.5-2.7-1.4-3.6c-0.9-0.9-2.1-1.4-3.6-1.4h-6.6v10h6.6C348,182.4,349.2,181.9,350.1,181 M350.1,194.8
	c0.9-0.9,1.4-2.1,1.4-3.6c0-1.5-0.5-2.7-1.4-3.6c-0.9-0.9-2.1-1.4-3.6-1.4h-6.6v10h6.6C348,196.2,349.2,195.7,350.1,194.8"/>
<polygon class="st0" points="387.7,168.5 387.7,172.4 373.4,172.4 373.4,182.3 387.3,182.3 387.3,186.3 373.4,186.3 373.4,196.2 
	387.7,196.2 387.7,200.1 369,200.1 369,168.5 "/>
<polygon class="st0" points="405.5,168.5 405.5,196.2 418.3,196.2 418.3,200.1 401.1,200.1 401.1,168.5 "/>
<polygon class="st0" points="433.6,168.5 433.6,196.2 446.4,196.2 446.4,200.1 429.2,200.1 429.2,168.5 "/>
<polygon class="st0" points="476.1,168.5 476.1,172.4 461.7,172.4 461.7,182.3 475.6,182.3 475.6,186.3 461.7,186.3 461.7,196.2 
	476.1,196.2 476.1,200.1 457.3,200.1 457.3,168.5 "/>
<polygon class="st0" points="505.1,172.4 487.7,172.4 487.7,168.5 510.1,168.5 510.1,172.6 492.6,196.2 510.1,196.2 510.1,200.1 
	487.7,200.1 487.7,195.8 "/>
<path class="st0" d="M533.7,168.5l11.2,31.7h-4.6l-2-6.1h-12.4l-2,6.1h-4.6l11.3-31.7H533.7z M532.1,175.5l-4.9,14.6h9.8
	L532.1,175.5z"/>
</svg>
